<svg version="1.0" xmlns="http://www.w3.org/2000/svg"
 width="1280.000000pt" height="1269.000000pt" viewBox="0 0 1280.000000 1269.000000"
 preserveAspectRatio="xMidYMid meet">
<g transform="translate(0.000000,1269.000000) scale(0.100000,-0.100000)"
fill="#FFF" stroke="none">
<path d="M6070 12680 c-178 -6 -277 -16 -580 -57 l-365 -51 -392 -106 c-392
-106 -393 -106 -770 -260 -376 -154 -379 -155 -723 -351 -329 -189 -360 -209
-675 -443 -322 -239 -337 -252 -609 -516 -265 -258 -291 -286 -539 -596 -257
-319 -265 -331 -472 -670 -207 -339 -214 -352 -376 -715 -151 -337 -173 -393
-243 -625 -43 -140 -95 -311 -116 -380 -38 -122 -56 -212 -139 -705 -39 -230
-41 -256 -56 -640 l-16 -400 41 -399 c22 -220 45 -418 50 -440 5 -23 48 -196
94 -386 l86 -345 150 -375 c109 -273 198 -472 323 -730 l174 -355 296 -3 c163
-1 297 1 297 6 0 4 -75 154 -166 333 -100 196 -230 472 -328 699 l-163 375
-106 385 -105 385 -39 395 -40 395 23 410 23 410 75 393 76 392 130 389 c130
388 131 390 309 757 176 364 181 374 394 699 216 328 217 330 484 635 l267
305 307 261 306 262 342 217 343 218 371 167 372 168 390 117 390 117 390 60
390 61 420 4 420 5 340 -46 c187 -26 370 -51 407 -56 37 -6 243 -60 458 -121
l391 -111 374 -164 374 -164 348 -218 348 -217 305 -257 306 -256 270 -304
c267 -300 272 -307 495 -638 l226 -335 178 -364 177 -364 129 -386 129 -386
75 -400 74 -400 20 -405 20 -405 -44 -405 c-41 -376 -47 -417 -89 -570 -24
-91 -70 -259 -101 -375 -50 -186 -74 -253 -212 -580 -103 -245 -216 -490 -334
-727 -99 -197 -179 -360 -179 -363 0 -3 143 -5 318 -5 l317 0 173 383 c153
340 227 523 412 1012 33 85 82 262 144 510 l94 380 36 390 36 390 -21 395 -21
395 -79 410 c-46 238 -93 454 -113 515 -18 58 -74 233 -125 390 -84 264 -104
313 -262 655 -165 358 -177 381 -387 720 -204 331 -230 368 -470 670 -245 309
-264 330 -545 606 -288 282 -296 289 -612 525 -315 235 -326 242 -674 437
l-354 198 -386 148 -386 148 -400 96 -400 96 -400 46 c-435 49 -527 52 -1095
35z"/>
<path d="M6266 11358 c-7 -380 -19 -1057 -36 -2028 -5 -316 -15 -825 -20
-1130 -5 -305 -14 -814 -20 -1130 -17 -943 -29 -1662 -40 -2235 -5 -297 -14
-837 -20 -1200 -6 -363 -13 -715 -16 -783 l-6 -122 -2474 2 c-1361 2 -2474 2
-2474 0 0 -6 167 -213 404 -501 238 -289 264 -317 546 -585 l297 -281 329
-231 c328 -230 330 -231 689 -417 352 -182 368 -189 730 -322 l370 -137 390
-89 390 -90 405 -40 405 -40 409 11 408 11 397 59 396 58 385 106 385 106 375
157 375 157 345 205 345 205 295 239 c369 299 731 647 1144 1100 155 170 282
312 284 316 1 3 -1120 6 -2490 6 l-2493 0 -3 400 -2 400 1817 349 c1000 192
1936 372 2080 399 l261 51 -248 255 c-226 233 -269 284 -487 570 -231 303
-247 326 -441 660 -132 228 -256 458 -362 676 -198 404 -178 358 -315 720 -62
165 -123 325 -135 355 -12 30 -66 235 -120 455 l-99 400 -45 380 c-59 489 -71
727 -69 1438 1 306 -1 557 -3 557 -2 0 -435 -203 -961 -451 -527 -248 -965
-453 -974 -456 -18 -5 -21 60 -39 1022 -6 286 -13 584 -16 663 l-6 142 -118 0
-117 0 -7 -362z"/>
<path d="M5845 10351 c-6 -5 -102 -70 -215 -143 -113 -74 -344 -232 -515 -353
-283 -200 -336 -243 -607 -485 l-297 -265 -258 -310 c-245 -294 -269 -327
-475 -645 -189 -294 -238 -379 -401 -695 -101 -198 -205 -414 -230 -480 -25
-66 -90 -237 -145 -380 -93 -244 -105 -284 -195 -655 l-96 -395 -37 -380 -36
-380 5 -455 c4 -305 12 -549 26 -740 11 -157 21 -313 21 -347 0 -35 4 -63 8
-63 4 0 543 259 1197 575 l1190 575 -2 33 c0 17 -33 178 -73 357 -76 344 -78
358 -139 820 -38 287 -39 306 -45 688 l-6 394 45 406 c45 407 45 407 137 807
90 395 92 404 210 725 65 179 126 345 135 370 9 25 102 207 207 405 146 278
236 433 394 680 112 176 209 326 214 333 12 14 -3 17 -17 3z"/>
</g>
</svg>
